# xmcd CD database file
#
# Track frame offsets:
#	182
#	23487
#	48720
#	78925
#	97400
#	127850
#	151087
#	174862
#	195012
#
# Disc length: 2964 seconds
#
# Revision: 0
# Processed by: cddbd v1.5.1PL0 Copyright (c) Steve Scherf et al.
# Submitted via: CDex 1.51
#
DISCID=5c0b9209
DTITLE=Elio Reve' y su Charangon - Papa Elegua
DYEAR=1993
DGENRE=Salsa
TTITLE0=Papa Elengua [Changüí Ocha]
TTITLE1=Con Mis Mañas Se Revuelve [Changüí]
TTITLE2=Willy Siete Reales [Changüí]
TTITLE3=Pupu Chan Chan [Changüí]
TTITLE4=Rumba Caliente [Changüí Rumba]
TTITLE5=El Helado [Changüí]
TTITLE6=Changüi Maria [Changüí]
TTITLE7=Truncando Mis Sueños [Changüí Boleo]
TTITLE8=En la Confianza [Changüí]
EXTD=YEAR: 1993
EXTT0=
EXTT1=
EXTT2=
EXTT3=
EXTT4=
EXTT5=
EXTT6=
EXTT7=
EXTT8=
PLAYORDER=
